<?xml version="1.0" standalone="no"?><!DOCTYPE svg PUBLIC "-//W3C//DTD SVG 1.1//EN" "http://www.w3.org/Graphics/SVG/1.1/DTD/svg11.dtd"><svg t="1600997558036" class="icon" viewBox="0 0 1024 1024" version="1.1" xmlns="http://www.w3.org/2000/svg" p-id="1166" xmlns:xlink="http://www.w3.org/1999/xlink" width="32" height="32"><defs><style type="text/css"></style></defs><path d="M517.632 397.824c-66.56 0-117.248 50.688-117.248 117.248s50.688 117.248 117.248 117.248 117.248-50.688 117.248-117.248-51.2-117.248-117.248-117.248z m0 187.904c-38.912 0-70.144-31.232-70.144-70.144S479.232 445.44 517.632 445.44s70.144 31.744 70.144 70.144c-0.512 38.4-31.744 70.144-70.144 70.144z" p-id="1167" fill="#ffffff"></path><path d="M593.408 210.432H441.344c-11.264 0-19.456 7.68-19.456 19.456V302.08c-14.848 7.68-30.72 14.848-41.984 23.04L319.488 286.72c-9.216-5.12-20.992-2.048-26.624 7.68l-75.776 133.12c-7.68 11.264-3.584 23.04 7.68 26.624l60.928 37.888v46.08l-60.928 37.888c-11.264 3.584-15.36 15.36-7.68 26.624l75.776 133.12c3.584 7.68 15.36 11.264 26.624 3.584l60.928-37.888c11.264 7.68 26.624 19.456 41.984 23.04v76.288c0 11.264 7.68 19.456 19.456 19.456h152.576c11.264 0 19.456-7.68 19.456-19.456v-72.192c14.848-7.68 30.72-15.36 41.984-23.04l60.928 37.888c9.216 5.12 20.992 2.048 26.624-7.68l75.776-133.12c7.68-11.264 3.584-23.04-7.68-26.624l-60.928-37.888V491.52l60.928-37.888c7.68-3.584 11.264-15.36 7.68-26.624l-75.776-133.12c-3.584-7.68-15.36-11.264-26.624-7.68l-60.928 37.888c-11.264-7.68-26.624-19.456-41.984-23.04v-71.68c-1.536-11.776-9.216-18.944-20.48-18.944z m-133.12 38.912h113.664v64c0 7.68 3.584 15.36 11.264 18.944 18.944 8.192 36.352 18.432 52.736 30.72 7.68 3.584 15.36 3.584 23.04 0l57.344-34.304 57.344 98.304-57.344 34.304c-7.68 7.68-11.264 15.36-7.68 23.04 0 11.264 3.584 18.944 3.584 30.72 0 11.264 0 18.944-3.584 30.72 0 7.68 3.584 15.36 7.68 18.944l57.344 34.304-57.344 97.28-57.344-34.304c-7.168-3.584-15.36-3.584-23.04 0-16.384 12.8-34.304 22.528-52.736 30.72-7.68 7.68-11.264 15.36-11.264 23.04v64H460.288v-64c0-8.192-4.096-15.36-11.264-18.944-18.944-8.192-36.352-18.432-52.736-30.72-7.168-3.584-15.36-3.584-23.04 0l-57.344 30.72-57.344-98.304 57.344-34.304c7.68-3.584 11.264-11.264 7.68-18.944 0-11.264-3.584-18.944-3.584-30.72s0-18.944 3.584-30.72c3.584-7.68 0-15.36-7.68-18.944l-56.832-34.304 57.344-98.304 56.832 33.792c7.68 3.584 15.36 3.584 23.04 0 16.384-12.8 34.304-22.528 52.736-30.72 7.168-3.584 11.264-11.264 11.264-18.944V249.344z" p-id="1168" fill="#ffffff"></path></svg>