<?xml version="1.0" standalone="no"?><!DOCTYPE svg PUBLIC "-//W3C//DTD SVG 1.1//EN" "http://www.w3.org/Graphics/SVG/1.1/DTD/svg11.dtd"><svg t="1600928523800" class="icon" viewBox="0 0 1024 1024" version="1.1" xmlns="http://www.w3.org/2000/svg" p-id="1166" xmlns:xlink="http://www.w3.org/1999/xlink" width="32" height="32"><defs><style type="text/css"></style></defs><path d="M285.696 404.992c-25.6 0-46.592-20.992-46.592-47.616s20.992-47.104 46.592-47.104 46.592 20.992 46.592 47.616-21.504 47.104-46.592 47.104z m0-62.976c-8.704 0-15.872 7.168-15.872 15.872s7.168 15.872 15.872 15.872c8.704 0 15.872-7.168 15.872-15.872s-7.68-15.872-15.872-15.872zM778.24 366.592h-30.72c0-13.824-10.752-24.576-24.064-24.576v-31.232c30.208-0.512 54.784 24.576 54.784 55.808zM641.024 310.272h49.152v31.232h-49.152z" p-id="1167" fill="#ffffff"></path><path d="M744.448 457.216H273.92c-53.76 0-97.792-44.544-97.792-99.328S220.16 258.56 273.92 258.56h470.528c53.76 0 97.792 44.544 97.792 99.328s-44.032 99.328-97.792 99.328zM273.92 297.472c-32.768 0-58.88 27.136-58.88 59.904-0.512 33.28 26.112 60.416 58.88 60.416h470.528c32.768 0 58.88-27.136 58.88-59.904 0-33.28-26.624-59.904-58.88-59.904l-470.528-0.512z" p-id="1168" fill="#ffffff"></path><path d="M744.448 729.6H273.92c-53.76 0-97.792-44.544-97.792-99.328s44.032-99.328 97.792-99.328h470.528c53.76 0 97.792 44.544 97.792 99.328s-44.032 99.328-97.792 99.328z m-470.528-159.744c-32.768 0-58.88 27.136-58.88 59.904s26.624 59.904 58.88 59.904h470.528c32.768 0 58.88-27.136 58.88-59.904 0-32.768-26.112-59.904-58.88-59.904H273.92z" p-id="1169" fill="#ffffff"></path><path d="M732.672 677.376c-25.6 0-46.592-20.992-46.592-47.616 0-26.112 20.992-47.616 46.592-47.616s46.592 20.992 46.592 47.616c0 26.624-20.48 47.616-46.592 47.616z m0-63.488c-8.704 0-15.872 7.168-15.872 15.872 0 9.216 7.168 15.872 15.872 15.872 8.704 0 15.872-7.168 15.872-15.872 0-8.704-7.168-15.872-15.872-15.872zM269.824 629.76h-30.72c0-26.112 20.992-47.616 46.592-47.616h65.024v31.232H285.696c-8.704 0.512-15.872 7.68-15.872 16.384z" p-id="1170" fill="#ffffff"></path></svg>