<?xml version="1.0" standalone="no"?><!DOCTYPE svg PUBLIC "-//W3C//DTD SVG 1.1//EN" "http://www.w3.org/Graphics/SVG/1.1/DTD/svg11.dtd"><svg t="1603349380798" class="icon" viewBox="0 0 1024 1024" version="1.1" xmlns="http://www.w3.org/2000/svg" p-id="5845" xmlns:xlink="http://www.w3.org/1999/xlink" width="200" height="200"><defs><style type="text/css"></style></defs><path d="M950.784 779.776c0-2.048-0.512-4.608-1.024-6.656V510.976c0-14.336-11.264-25.6-25.6-25.6s-25.6 11.264-25.6 25.6v106.496H502.272v-112.64c0-66.56-40.448-72.192-52.736-72.192H124.416v-302.08c0-14.336-11.264-25.6-25.6-25.6s-25.6 11.264-25.6 25.6v762.88c0 14.336 11.264 25.6 25.6 25.6s25.6-11.264 25.6-25.6v-88.576h512.512c14.336 0 25.6-11.264 25.6-25.6s-11.264-25.6-25.6-25.6H124.416v-84.992h773.632v84.992h-113.152c-14.336 0-25.6 11.264-25.6 25.6s11.264 25.6 25.6 25.6h113.152v88.576c0 14.336 11.264 25.6 25.6 25.6s25.6-11.264 25.6-25.6v-107.52c1.024-2.048 1.536-4.096 1.536-6.144zM124.416 484.352h323.584c1.024 2.048 3.072 8.192 3.072 20.992v112.64H124.416V484.352z" p-id="5846" fill="#ffffff"></path></svg>