<?xml version="1.0" standalone="no"?><!DOCTYPE svg PUBLIC "-//W3C//DTD SVG 1.1//EN" "http://www.w3.org/Graphics/SVG/1.1/DTD/svg11.dtd"><svg t="1605245252932" class="icon" viewBox="0 0 1024 1024" version="1.1" xmlns="http://www.w3.org/2000/svg" p-id="4546" xmlns:xlink="http://www.w3.org/1999/xlink" width="200" height="200"><defs><style type="text/css"></style></defs><path d="M808.0896 492.2368a22.4768 22.4768 0 0 0-22.4768 22.4768v70.2464H508.5184V496.2304a52.5312 52.5312 0 0 0-52.48-52.48H238.3872V245.76a22.4768 22.4768 0 0 0-44.9536 0v532.48a22.4768 22.4768 0 0 0 44.9536 0v-52.0192H599.04a22.4768 22.4768 0 1 0 0-44.9536H238.3872V629.76h547.2256v51.2H711.168a22.4768 22.4768 0 0 0 0 44.9536h74.4448V778.24a22.4768 22.4768 0 1 0 44.9536 0v-263.68a22.4256 22.4256 0 0 0-22.4768-22.3232z m-569.7024-3.4816h217.6512a7.4752 7.4752 0 0 1 7.5264 7.4752v88.7296h-225.28z" p-id="4547" fill="#ffffff"></path></svg>