<svg id="图层_1" data-name="图层 1" xmlns="http://www.w3.org/2000/svg" viewBox="0 0 200 200"><defs><style>.cls-1{fill:#eff7fe;}.cls-2{fill:#1e87f0;}</style></defs><title>icon</title><path class="cls-1" d="M119.68,162.36h-.21l-61.61-6.58A6.83,6.83,0,0,1,51,148.94V51.06a6.83,6.83,0,0,1,6.84-6.83l61.61-6.58h.21a6.83,6.83,0,0,1,6.72,6.83V155.53A6.83,6.83,0,0,1,119.68,162.36Z"/><path class="cls-2" d="M119.66,167.36a6.12,6.12,0,0,1-.74,0l-61.37-6.55A11.85,11.85,0,0,1,46,148.94V51.06A11.85,11.85,0,0,1,57.55,39.23l61.38-6.55a6.19,6.19,0,0,1,.85,0A11.88,11.88,0,0,1,131.4,44.47V155.53a11.88,11.88,0,0,1-11.64,11.83h-.1Zm.32-10h0ZM57.86,49.23A1.84,1.84,0,0,0,56,51.06v97.88a1.84,1.84,0,0,0,1.84,1.83l.53,0,61.37,6.55a1.83,1.83,0,0,0,1.64-1.82V44.47a1.83,1.83,0,0,0-1.65-1.82L58.12,49.23Zm61.74-6.59h0Z"/><path class="cls-2" d="M141.91,160.47h-5.36v-10h5.36A2.07,2.07,0,0,0,144,148.4V51.6a2.07,2.07,0,0,0-2.07-2.07h-5.36v-10h5.36A12.09,12.09,0,0,1,154,51.6v96.8A12.09,12.09,0,0,1,141.91,160.47Z"/><path class="cls-2" d="M109.64,118.17h-8.52a5.19,5.19,0,0,1-4.57-2.72l-6.77-12.51a13.77,13.77,0,0,1-.92-3h-.12A19.88,19.88,0,0,1,87.68,103l-6.8,12.45a5.21,5.21,0,0,1-4.56,2.7H67.7l14.73-23L69,72.25h8.67a5.2,5.2,0,0,1,4.67,2.92l5.43,11.14a24.32,24.32,0,0,1,1.42,3.79h.12c.41-1.25.92-2.56,1.51-3.94L96.87,75a5.21,5.21,0,0,1,4.57-2.72h7.85L95.41,95Z"/></svg>