<?xml version="1.0" standalone="no"?><!DOCTYPE svg PUBLIC "-//W3C//DTD SVG 1.1//EN" "http://www.w3.org/Graphics/SVG/1.1/DTD/svg11.dtd"><svg t="1600928512352" class="icon" viewBox="0 0 1024 1024" version="1.1" xmlns="http://www.w3.org/2000/svg" p-id="1007" xmlns:xlink="http://www.w3.org/1999/xlink" width="32" height="32"><defs><style type="text/css"></style></defs><path d="M511.488 623.616c-53.248 0-96.768 43.52-96.768 96.768s43.52 96.768 96.768 96.768 96.768-43.52 96.768-96.768-43.52-96.768-96.768-96.768z m51.712 96.768c0 28.16-23.04 51.712-51.712 51.712s-51.712-23.04-51.712-51.712c0-28.16 23.04-51.712 51.712-51.712 28.16 0.512 51.712 23.552 51.712 51.712z" p-id="1008" fill="#ffffff"></path><path d="M770.56 626.176v-79.36c0-25.088-20.48-45.568-45.568-45.568h-184.832V444.416c50.688-10.752 87.04-55.296 87.04-107.52 0-60.416-49.152-109.568-109.568-109.568S408.064 276.48 408.064 336.896c0 51.712 36.352 96.768 87.04 107.52V501.76H298.496c-25.088 0-45.568 20.48-45.568 45.568v79.36c-43.008 10.24-74.24 49.664-74.24 94.208 0 53.248 43.52 96.768 96.768 96.768s96.768-43.52 96.768-96.768c0-44.544-31.232-83.968-74.24-94.208V563.2c0-8.704 7.68-16.384 16.384-16.384h394.24c8.704 0 16.384 7.68 16.384 16.384v62.976c-43.52 10.24-74.752 49.152-74.752 94.208 0 53.248 43.52 96.768 96.768 96.768s96.768-43.52 96.768-96.768c0.512-44.544-30.72-83.456-73.216-94.208z m28.16 94.208c0 28.16-23.04 51.712-51.712 51.712-28.16 0-51.712-23.04-51.712-51.712 0-28.16 23.04-51.712 51.712-51.712 28.672 0.512 51.712 23.552 51.712 51.712z m-281.088-448c35.84 0 64.512 28.672 64.512 64.512s-28.672 64.512-64.512 64.512-64.512-28.672-64.512-64.512 28.672-64.512 64.512-64.512z m-190.464 448c0 28.16-23.04 51.712-51.712 51.712s-51.712-23.04-51.712-51.712c0-28.16 23.04-51.712 51.712-51.712s51.712 23.552 51.712 51.712z" p-id="1009" fill="#ffffff"></path></svg>