<?xml version="1.0" standalone="no"?><!DOCTYPE svg PUBLIC "-//W3C//DTD SVG 1.1//EN" "http://www.w3.org/Graphics/SVG/1.1/DTD/svg11.dtd"><svg t="1659165830712" class="icon" viewBox="0 0 1024 1024" version="1.1" xmlns="http://www.w3.org/2000/svg" p-id="5398" xmlns:xlink="http://www.w3.org/1999/xlink" width="200" height="200"><defs><style type="text/css">@font-face { font-family: feedback-iconfont; src: url("//at.alicdn.com/t/font_1031158_u69w8yhxdu.woff2?t=1630033759944") format("woff2"), url("//at.alicdn.com/t/font_1031158_u69w8yhxdu.woff?t=1630033759944") format("woff"), url("//at.alicdn.com/t/font_1031158_u69w8yhxdu.ttf?t=1630033759944") format("truetype"); }
</style></defs><path d="M511.488 394.496A117.248 117.248 0 1 0 628.736 512a114.9952 114.9952 0 0 0-117.248-117.504z m0 187.904a70.144 70.144 0 1 1 70.144-70.144 70.912 70.912 0 0 1-70.144 70.144z" p-id="5399" fill="#FFFFFF"></path><path d="M587.264 207.104H435.2a18.5344 18.5344 0 0 0-19.456 19.456v72.192a351.488 351.488 0 0 0-41.984 23.04l-60.416-38.4a19.6096 19.6096 0 0 0-26.624 7.68l-75.776 133.12c-7.68 11.264-3.584 23.04 7.68 26.624l60.928 37.888v46.08l-60.928 37.888c-11.264 3.584-15.36 15.36-7.68 26.624l75.776 133.12c3.584 7.68 15.36 11.264 26.624 3.584l60.928-37.888c11.264 7.68 26.624 19.456 41.984 23.04v76.288a18.5344 18.5344 0 0 0 19.456 19.456h152.576a18.5344 18.5344 0 0 0 19.456-19.456v-72.192a442.624 442.624 0 0 0 41.984-23.04l60.928 37.888a19.6096 19.6096 0 0 0 26.624-7.68l75.776-133.12c7.68-11.264 3.584-23.04-7.68-26.624l-60.928-37.888v-46.592L805.376 450.56c7.68-3.584 11.264-15.36 7.68-26.624l-75.776-133.12c-3.584-7.68-15.36-11.264-26.624-7.68l-60.928 37.888c-11.264-7.68-26.624-19.456-41.984-23.04v-71.68a19.8656 19.8656 0 0 0-20.48-18.944z m-133.12 38.912h113.664v64a20.48 20.48 0 0 0 11.264 18.944 258.0992 258.0992 0 0 1 52.736 30.72 26.0096 26.0096 0 0 0 23.04 0l57.344-34.304 57.344 98.304-57.344 34.304c-7.68 7.68-11.264 15.36-7.68 23.04 0 11.264 3.584 18.944 3.584 30.72a91.6992 91.6992 0 0 1-3.584 30.72 26.9312 26.9312 0 0 0 7.68 18.944l57.344 34.304-57.344 97.28-57.344-34.304a26.0096 26.0096 0 0 0-23.04 0 248.6272 248.6272 0 0 1-52.736 30.72 32.768 32.768 0 0 0-11.264 23.04v64H454.144v-64a20.48 20.48 0 0 0-11.264-18.944 258.0992 258.0992 0 0 1-52.736-30.72 26.0096 26.0096 0 0 0-23.04 0l-57.344 30.72-57.344-98.304 57.344-34.304a13.8752 13.8752 0 0 0 7.68-18.944c0-11.264-3.584-18.944-3.584-30.72a90.2144 90.2144 0 0 1 3.584-30.72 13.8752 13.8752 0 0 0-7.68-18.944l-56.832-34.304 57.344-98.304 56.832 33.792a26.0096 26.0096 0 0 0 23.04 0 248.6272 248.6272 0 0 1 52.736-30.72 21.1456 21.1456 0 0 0 11.264-18.944z" p-id="5400" fill="#FFFFFF"></path></svg>