<?xml version="1.0" encoding="UTF-8"?>
<svg width="21px" height="19px" viewBox="0 0 21 19" version="1.1" xmlns="http://www.w3.org/2000/svg" xmlns:xlink="http://www.w3.org/1999/xlink">
    <title>icon_系统</title>
    <g id="一级导航新增" stroke="none" stroke-width="1" fill="none" fill-rule="evenodd">
        <g transform="translate(-160.000000, -69.000000)" fill="#FFFFFF" fill-rule="nonzero" id="系统">
            <g transform="translate(140.000000, 56.000000)">
                <g id="编组-4" transform="translate(18.000000, 13.000000)">
                    <g id="icon_系统" transform="translate(2.000000, 0.000000)">
                        <path d="M8.68108808,16.9433187 L4.4384715,16.9433187 C3.98979301,16.9433187 3.62604943,17.3070573 3.62604943,17.7557358 C3.62443706,17.9713935 3.70967398,18.1786327 3.86256736,18.3307332 C4.01405825,18.4843175 4.22095106,18.570524 4.43667617,18.5699511 L8.67475907,18.5699511 C8.89022862,18.5699511 9.09687475,18.4843614 9.24923643,18.3320031 C9.40159811,18.1796449 9.48719638,17.9730006 9.48719638,17.7575311 C9.48819544,17.3105987 9.12800809,16.9467893 8.68108808,16.9433187 L8.68108808,16.9433187 Z M20.8519301,10.6606736 C20.8150588,10.2208324 20.4519149,9.87989567 20.0106244,9.87081606 C19.1688841,9.86790445 18.4854368,9.18968275 18.4760648,8.34798964 C18.4853622,8.14253559 18.5315368,7.9404287 18.6123834,7.75132124 C18.7961855,7.30675575 18.6409632,6.79425194 18.2413834,6.52637565 L16.5326036,5.57676943 C16.1107581,5.40915308 15.6291912,5.52063961 15.3239249,5.85658808 C15.2097888,6.03725532 15.0552848,6.18897203 14.8725699,6.29980052 C14.556915,6.4957928 14.1760359,6.55754251 13.8146269,6.47131865 C13.4356798,6.37574139 13.1106709,6.13263111 12.9119534,5.79610881 C12.5948519,5.47555 12.1123396,5.38494893 11.7005544,5.56864508 L9.93581088,6.54623316 C9.55530198,6.81753959 9.41547513,7.31745625 9.60001036,7.7468057 C9.68008247,7.93341034 9.72682773,8.13260552 9.73812435,8.33534974 C9.73812435,9.1828636 9.05107862,9.86990933 8.20356477,9.86990933 L8.13496114,9.86990933 C7.75674352,9.86990933 7.45344041,10.1804301 7.3622772,10.6624689 C7.27967161,11.1094009 7.23228506,11.5621289 7.2205544,12.0164793 C7.23211482,12.4679438 7.28011015,12.9177378 7.36407254,13.3614767 C7.39666957,13.8017337 7.75946694,14.1445683 8.20086269,14.1522228 C9.0434648,14.1521942 9.72848192,14.831569 9.73542228,15.6741425 C9.72575406,15.8797442 9.67991525,16.0820317 9.60001036,16.2717176 C9.41328948,16.7158033 9.56775388,17.2299266 9.96830829,17.4975699 L11.6454793,18.4345544 C11.7787126,18.4740822 11.9152977,18.5012778 12.0535104,18.5157979 C12.3472201,18.5143147 12.627603,18.3930297 12.8298031,18.1799974 C13.155703,17.8110247 13.5902964,17.5550042 14.0709974,17.4488057 C14.5611853,17.5560485 15.0028052,17.8207733 15.3284223,18.202557 C15.5324491,18.4165107 15.8154047,18.5372632 16.111044,18.5365472 C16.2599207,18.5354382 16.4068013,18.5021822 16.5416347,18.4390518 L18.2756762,17.4741036 C18.6552975,17.2043435 18.796432,16.7069946 18.6150855,16.2780466 C18.5337711,16.0908543 18.4866856,15.8905965 18.4760648,15.6867824 C18.480997,14.84132 19.1651619,14.157155 20.0106244,14.1522228 L20.0819482,14.1522228 C20.4583523,14.1522228 20.7607668,13.8417021 20.8519301,13.3596813 C20.9362703,12.9129957 20.9836715,12.4601215 20.9936528,12.0056528 C20.9820829,11.5542761 20.934693,11.1045305 20.8519301,10.6606554 L20.8519301,10.6606736 Z M17.1825337,16.181443 L15.994601,16.8331684 C15.8503708,16.6895419 15.6962335,16.5562201 15.5333264,16.4341865 C15.1349941,16.1008708 14.6392893,15.9057578 14.1206321,15.8781399 L14.1080104,15.8781399 C13.5998606,15.904418 13.1131425,16.091204 12.7178756,16.4116269 C12.5497205,16.5363971 12.3904627,16.6727316 12.2412591,16.8196399 L11.1101969,16.1877539 C11.1990519,15.9303554 11.2486559,15.6610483 11.257342,15.3888834 C11.2556941,14.1095117 10.3018585,13.0314753 9.03221244,12.8740155 C8.92890209,12.3069859 8.92890209,11.7259545 9.03221244,11.1589249 C10.3040497,11.0032832 11.259529,9.9226614 11.2582487,8.64133679 C11.2493496,8.37325213 11.2006705,8.1079771 11.1138057,7.85419948 L12.3405466,7.18713212 C12.4809835,7.32359836 12.631897,7.44885125 12.7919016,7.56174093 C13.5684673,8.26969725 14.7529168,8.28135297 15.5432642,7.58881606 C15.7113435,7.47129429 15.8698141,7.34059676 16.0171788,7.19795855 L17.1834223,7.85331088 C17.0953199,8.10943751 17.0478133,8.37776642 17.0426244,8.64857254 C17.0386952,9.92870959 17.9947451,11.0085869 19.2659223,11.1598316 C19.3738702,11.7262655 19.3757027,12.3078194 19.2713264,12.8749223 C18.0004933,13.030116 17.0454665,14.1095162 17.0462332,15.3897902 C17.051185,15.6588466 17.0962125,15.9256624 17.1798316,16.181443 L17.1825337,16.181443 Z" id="形状"></path>
                        <path d="M14.1883472,9.25429016 L14.1522409,9.25429016 C12.6338859,9.25659125 11.3981845,10.4766065 11.376487,11.9948083 C11.3589301,13.5280989 12.5864625,14.7859322 14.1197254,14.8057617 L14.1883472,14.8057617 C15.6963946,14.7949348 16.9162431,13.5750863 16.9270699,12.0670389 C16.9393529,11.3304492 16.6558256,10.6196813 16.1399326,10.0937824 C15.6277414,9.56437701 14.9249268,9.26205491 14.1883472,9.25429016 Z M14.1206321,13.4797332 C13.2910415,13.4782377 12.6187604,12.8063538 12.6167698,11.9767642 C12.6157608,11.5778976 12.774004,11.1951269 13.0563782,10.9134171 C13.3120018,10.6562079 13.6523614,10.5006219 14.0141269,10.4756088 L14.1215389,10.4756088 C14.9492611,10.47955 15.6195672,11.1490473 15.6245078,11.9767642 C15.6235185,12.8064209 14.9511956,13.4787439 14.1215389,13.4797332 L14.1206321,13.4797332 Z" id="形状"></path>
                        <path d="M7.06980052,14.1450052 C7.07161025,13.9292214 6.98672886,13.7217415 6.8341943,13.569101 C6.68191352,13.4161494 6.4750292,13.3300798 6.25919689,13.329886 L1.6248342,13.329886 L1.6248342,1.6248342 L18.1511088,1.6248342 L18.1511088,5.65438601 C18.151104,5.86985556 18.2366956,6.07650169 18.3890539,6.22886337 C18.5414121,6.38122506 18.7480564,6.46682124 18.9635259,6.46682124 C19.1789923,6.46681643 19.3856319,6.38121812 19.5379862,6.22885696 C19.6903406,6.0764958 19.7759249,5.86985242 19.7759249,5.65438601 L19.7759249,0.812417098 C19.7759249,0.363738606 19.4122044,0 18.9635259,0 L0.812417098,0 C0.363731524,0 0,0.363731524 0,0.812417098 L0,14.1450052 C0,14.5936908 0.363731524,14.9574223 0.812417098,14.9574223 L6.25917876,14.9574223 C6.70716305,14.9564323 7.06980161,14.5929906 7.06980052,14.1450052 Z" id="路径"></path>
                    </g>
                </g>
            </g>
        </g>
    </g>
</svg>