<?xml version="1.0" standalone="no"?><!DOCTYPE svg PUBLIC "-//W3C//DTD SVG 1.1//EN" "http://www.w3.org/Graphics/SVG/1.1/DTD/svg11.dtd"><svg t="1659165789574" class="icon" viewBox="0 0 1024 1024" version="1.1" xmlns="http://www.w3.org/2000/svg" p-id="5200" xmlns:xlink="http://www.w3.org/1999/xlink" width="200" height="200"><defs><style type="text/css">@font-face { font-family: feedback-iconfont; src: url("//at.alicdn.com/t/font_1031158_u69w8yhxdu.woff2?t=1630033759944") format("woff2"), url("//at.alicdn.com/t/font_1031158_u69w8yhxdu.woff?t=1630033759944") format("woff"), url("//at.alicdn.com/t/font_1031158_u69w8yhxdu.ttf?t=1630033759944") format("truetype"); }
</style></defs><path d="M288.512 422.912a47.36 47.36 0 1 1 46.592-47.104 47.0016 47.0016 0 0 1-46.592 47.104z m0-62.976a15.872 15.872 0 1 0 15.872 15.872 16.2816 16.2816 0 0 0-15.872-15.872zM781.056 384.512h-30.72a24.1664 24.1664 0 0 0-24.064-24.576v-31.232a54.7328 54.7328 0 0 1 54.784 55.808zM643.84 328.192h49.152v31.232h-49.152z" p-id="5201" fill="#FFFFFF"></path><path d="M747.52 475.136H276.736a99.328 99.328 0 0 1 0-198.656H747.52a99.328 99.328 0 0 1 0 198.656zM276.736 315.392a60.16 60.16 0 0 0 0 120.32H747.52a59.904 59.904 0 0 0 0-119.808l-470.528-0.512zM747.52 747.52H276.736a99.328 99.328 0 0 1 0-198.656H747.52a99.328 99.328 0 0 1 0 198.656z m-470.528-159.744a59.904 59.904 0 0 0 0 119.808H747.52a59.904 59.904 0 0 0 0-119.808z" p-id="5202" fill="#FFFFFF"></path><path d="M735.488 695.296a47.616 47.616 0 1 1 46.592-47.616 47.0016 47.0016 0 0 1-46.592 47.616z m0-63.488a15.9744 15.9744 0 0 0-15.872 15.872 15.616 15.616 0 0 0 15.872 15.872 15.872 15.872 0 0 0 0-31.744zM272.64 647.68h-30.72a47.3088 47.3088 0 0 1 46.592-47.616h65.024v31.232h-65.024a16.7424 16.7424 0 0 0-15.872 16.384z" p-id="5203" fill="#FFFFFF"></path></svg>