<?xml version="1.0" standalone="no"?><!DOCTYPE svg PUBLIC "-//W3C//DTD SVG 1.1//EN" "http://www.w3.org/Graphics/SVG/1.1/DTD/svg11.dtd"><svg t="1600997535028" class="icon" viewBox="0 0 1024 1024" version="1.1" xmlns="http://www.w3.org/2000/svg" p-id="1007" xmlns:xlink="http://www.w3.org/1999/xlink" width="32" height="32"><defs><style type="text/css"></style></defs><path d="M788.48 766.976H235.52c-42.496 0-76.8-34.816-76.8-76.8V334.336c0-42.496 34.816-76.8 76.8-76.8h552.96c42.496 0 76.8 61.952 76.8 76.8v355.328c0 42.496-34.304 77.312-76.8 77.312zM235.52 299.52c-18.944 0-34.816 15.872-34.816 34.816v355.328c0 18.944 15.872 34.816 34.816 34.816h552.96c18.944 0 34.816-15.872 34.816-34.816V334.336c0-18.944-15.872-34.816-34.816-34.816H235.52z" p-id="1008" fill="#ffffff"></path><path d="M415.744 528.896c16.384-15.36 25.088-36.352 25.088-58.88 0-44.032-35.84-79.872-79.872-79.872-21.504 0-41.472 8.192-56.32 23.552-15.36 14.848-23.552 34.304-23.552 56.32 0 23.04 9.216 44.032 25.6 58.88-29.696 16.896-51.2 46.08-55.808 80.384-0.512 1.536-0.512 2.56-0.512 4.096v2.56c0 9.728 7.68 17.408 17.408 17.408 9.216 0 17.408-8.192 17.408-16.896 5.12-36.352 34.816-64.512 70.144-66.56 3.072 0.512 6.656 0.512 9.216 0 18.432 1.024 33.792 8.192 47.104 20.48 13.824 12.288 21.504 28.16 24.064 45.568l1.024 4.096c2.56 7.168 9.216 12.288 16.896 12.288 9.216 0 17.408-8.192 17.92-18.432l-0.512-3.584c-3.072-33.792-23.552-64.512-55.296-81.408zM329.728 439.296c8.704-8.704 19.456-13.824 31.744-13.824 11.776 0 23.552 5.12 31.744 13.824 8.704 8.704 13.824 19.456 13.824 31.744 0 25.088-19.968 45.056-45.056 45.056-24.576 0-45.056-20.48-45.056-45.056 0-12.288 3.584-23.04 12.8-31.744zM553.984 440.832h197.12c11.776 0 20.992-9.216 20.992-20.992s-9.216-20.992-20.992-20.992h-197.12c-11.776 0-20.992 9.216-20.992 20.992s10.24 20.992 20.992 20.992zM751.616 483.84h-197.12c-11.776 0-20.992 9.216-20.992 20.992s9.216 20.992 20.992 20.992h197.12c11.776 0 20.992-9.216 20.992-20.992s-9.216-20.992-20.992-20.992zM751.616 573.952h-197.12c-11.776 0-20.992 9.216-20.992 20.992s9.216 20.992 20.992 20.992h197.12c11.776 0 20.992-9.216 20.992-20.992 0.512-11.264-9.216-20.992-20.992-20.992z" p-id="1009" fill="#ffffff"></path></svg>