<?xml version="1.0" standalone="no"?><!DOCTYPE svg PUBLIC "-//W3C//DTD SVG 1.1//EN" "http://www.w3.org/Graphics/SVG/1.1/DTD/svg11.dtd"><svg t="1605245483177" class="icon" viewBox="0 0 1024 1024" version="1.1" xmlns="http://www.w3.org/2000/svg" p-id="4704" xmlns:xlink="http://www.w3.org/1999/xlink" width="200" height="200"><defs><style type="text/css"></style></defs><path d="M763.1872 479.8464H226.816V333.5168a65.6896 65.6896 0 0 1 65.5872-65.5872h405.1968a65.6896 65.6896 0 0 1 65.5872 65.5872zM274.0224 432.64h441.9072V333.5168a18.3296 18.3296 0 0 0-18.3296-18.3808H292.4032a18.3808 18.3808 0 0 0-18.3808 18.3808z" p-id="4705" fill="#ffffff"></path><path d="M527.7184 796.2112h-235.52A65.6384 65.6384 0 0 1 226.816 730.624V476.16a23.6032 23.6032 0 0 1 47.2064 0v254.464a18.3808 18.3808 0 0 0 18.3808 18.3808h235.52a23.6032 23.6032 0 1 1 0 47.2064zM658.6368 518.656a138.5472 138.5472 0 1 0 138.5472 138.5472 138.6496 138.6496 0 0 0-138.5472-138.5472z m0 235.1104a96.6144 96.6144 0 1 1 96.5632-96.5632 96.6656 96.6656 0 0 1-96.5632 96.5632z" p-id="4706" fill="#ffffff"></path><path d="M475.6992 651.0592H320.4608c-9.216 0-16.64 9.2672-16.64 20.48s7.424 20.48 16.64 20.48h155.2384c9.216 0 16.6912-9.2672 16.6912-20.48s-7.4752-20.48-16.6912-20.48zM442.5216 553.984H318.72c-8.2432 0-14.8992 9.2672-14.8992 20.48s6.656 20.48 14.8992 20.48h123.8016c8.2432 0 14.8992-9.2672 14.8992-20.48s-6.8608-20.48-14.8992-20.48zM399.36 385.3312c-13.0048 0-23.6032-9.1136-23.6032-20.48v-116.736c0-11.2128 10.5984-20.48 23.6032-20.48s23.6032 9.1136 23.6032 20.48v116.8896c0.2048 11.2128-10.3424 20.3264-23.6032 20.3264zM595.3024 385.3312c-13.056 0-23.6032-9.1136-23.6032-20.48v-116.736c0-11.2128 10.5472-20.48 23.6032-20.48s23.6032 9.1136 23.6032 20.48v116.8896c0 11.2128-10.5472 20.3264-23.6032 20.3264zM708.096 693.2992h-75.6736v-86.1696a20.992 20.992 0 0 1 41.984 0v44.1856h33.6896a20.992 20.992 0 0 1 0 41.984z" p-id="4707" fill="#ffffff"></path></svg>