<?xml version="1.0" standalone="no"?><!DOCTYPE svg PUBLIC "-//W3C//DTD SVG 1.1//EN" "http://www.w3.org/Graphics/SVG/1.1/DTD/svg11.dtd"><svg t="1603349412358" class="icon" viewBox="0 0 1024 1024" version="1.1" xmlns="http://www.w3.org/2000/svg" p-id="6003" xmlns:xlink="http://www.w3.org/1999/xlink" width="200" height="200"><defs><style type="text/css"></style></defs><path d="M169.472 862.72c-50.176 0-89.088-38.912-89.088-89.088V250.368c0-50.176 38.912-89.088 89.088-89.088h77.824V105.472H291.84v55.808h339.456V105.472h44.544v55.808h77.824c50.176 0 89.088 38.912 89.088 89.088v178.176H125.44v350.72c0 22.016 16.896 44.544 44.544 44.544h289.28c11.264 0 22.016 11.264 22.016 22.016 0 11.264-11.264 22.016-22.016 22.016l-289.792-5.12z m0-656.896c-22.016 0-44.544 16.896-44.544 44.544V384h667.648V250.368c0-22.016-16.896-44.544-44.544-44.544H670.72v83.456h-44.544V205.824H292.352v83.456h-44.544V205.824H169.472z m0 0" p-id="6004" fill="#ffffff"></path><path d="M219.648 517.632h178.176v44.544H219.648v-44.544z m0 166.912h178.176v44.544H219.648v-44.544z m489.984 44.544v-128h44.544v83.456h83.456v44.544h-128z m0 0" p-id="6005" fill="#ffffff"></path><path d="M731.648 918.528c-55.808 0-111.104-22.016-150.016-61.44-38.912-38.912-61.44-94.72-61.44-150.016 0-55.808 22.016-111.104 61.44-150.016 38.912-38.912 94.72-61.44 150.016-61.44s111.104 22.016 150.016 61.44c38.912 38.912 61.44 94.72 61.44 150.016 0 55.808-22.016 111.104-61.44 150.016-38.4 38.912-88.576 61.44-150.016 61.44z m0-384.512c-94.72 0-172.544 77.824-172.544 172.544s77.824 172.544 172.544 172.544 172.544-77.824 172.544-172.544-77.824-172.544-172.544-172.544z m0 0" p-id="6006" fill="#ffffff"></path></svg>