<?xml version="1.0" standalone="no"?><!DOCTYPE svg PUBLIC "-//W3C//DTD SVG 1.1//EN" "http://www.w3.org/Graphics/SVG/1.1/DTD/svg11.dtd"><svg t="1603349429449" class="icon" viewBox="0 0 1024 1024" version="1.1" xmlns="http://www.w3.org/2000/svg" p-id="6163" xmlns:xlink="http://www.w3.org/1999/xlink" width="200" height="200"><defs><style type="text/css"></style></defs><path d="M902.144 176.64c-97.28-97.28-256-97.28-353.28 0.512l-37.376 37.376-37.376-37.376c-47.104-47.104-109.568-72.704-176.128-72.704h-0.512c-66.56 0-129.536 26.112-176.64 73.216-46.592 47.104-72.704 109.568-72.192 176.128 0 66.56 26.112 129.536 73.216 176.64l390.656 390.144 390.144-390.656c47.104-47.104 73.216-110.08 72.704-176.64 0-67.072-26.112-129.536-73.216-176.64zM157.696 213.504c37.376-37.376 87.04-58.368 140.288-58.368 52.736 0 102.912 20.48 140.288 57.856L512 286.72l73.216-73.728c77.312-77.312 203.264-77.824 280.576-0.512 37.376 37.376 58.368 87.04 58.368 140.288 0 35.328-9.216 68.608-26.112 98.304h-241.152L583.168 394.24l-58.368 174.592-139.776-313.856-61.44 196.608H125.44c-16.896-29.696-25.6-62.976-25.6-97.792-0.512-52.736 20.48-102.912 57.856-140.288z m354.816 634.368L166.4 502.784h194.56l32.256-102.912 138.24 310.272 77.312-230.912 30.72 23.552h217.6l-344.576 345.088z" p-id="6164" fill="#ffffff"></path></svg>