<?xml version="1.0" standalone="no"?><!DOCTYPE svg PUBLIC "-//W3C//DTD SVG 1.1//EN" "http://www.w3.org/Graphics/SVG/1.1/DTD/svg11.dtd"><svg t="1605245505104" class="icon" viewBox="0 0 1024 1024" version="1.1" xmlns="http://www.w3.org/2000/svg" p-id="5023" xmlns:xlink="http://www.w3.org/1999/xlink" width="200" height="200"><defs><style type="text/css"></style></defs><path d="M683.3152 305.2032h-19.712a76.0832 76.0832 0 0 0-62.6176-50.176 79.4112 79.4112 0 0 0-18.1248 0 75.52 75.52 0 0 0-141.7216 0 75.2128 75.2128 0 0 0-80.7424 50.0224h-19.712a51.2 51.2 0 0 0-51.2 51.2v410.88a51.2 51.2 0 0 0 51.2 51.2h342.6304a51.2 51.2 0 0 0 51.2-51.2V356.2496a51.2 51.2 0 0 0-51.2-51.0464zM393.9328 327.68v-2.5088a37.8368 37.8368 0 0 1 53.2992-29.5424 20.48 20.48 0 0 0 2.5088 0.8704L450.56 296.96a23.0912 23.0912 0 0 0 2.7136 0.4096 5.5296 5.5296 0 0 0 0.9728 0H455.68a18.688 18.688 0 0 0 18.432-17.8688 37.8368 37.8368 0 0 1 75.5712 0c0 0.512 0 1.024 0.256 1.536a11.8784 11.8784 0 0 0 0 1.9456 19.0464 19.0464 0 0 0 1.024 3.0208 1.6384 1.6384 0 0 1 0 0.4608 20.1728 20.1728 0 0 0 1.8432 3.2256c0.3072 0.4096 0.7168 0.768 1.024 1.1776a18.9952 18.9952 0 0 0 1.3824 1.4848 10.7008 10.7008 0 0 0 1.4336 1.1264l1.3824 1.024a9.3184 9.3184 0 0 0 1.5872 0.8192 9.7792 9.7792 0 0 0 1.6384 0.8192l1.6896 0.512a17.2544 17.2544 0 0 0 1.7408 0.4608h5.5296a17.92 17.92 0 0 0 2.304-0.3584 11.0592 11.0592 0 0 0 2.304-0.768 7.3216 7.3216 0 0 0 1.1264-0.4096 38.4512 38.4512 0 0 1 20.48-3.1744 37.888 37.888 0 0 1 33.3312 32.768v2.56a28.8768 28.8768 0 0 1-8.0896 21.8624 32.7168 32.7168 0 0 1-23.7056 10.24H425.728a32.768 32.768 0 0 1-23.7056-10.24A29.2352 29.2352 0 0 1 393.9328 327.68z m300.4928 439.3984a11.1104 11.1104 0 0 1-11.1104 11.1104H340.6848a11.1104 11.1104 0 0 1-11.1104-11.1104V356.2496a11.1104 11.1104 0 0 1 11.1104-11.1104h17.3568a67.1744 67.1744 0 0 0 16.5376 30.3616 70.6048 70.6048 0 0 0 51.2 22.0672h172.544a70.5536 70.5536 0 0 0 51.2-22.1184 67.2768 67.2768 0 0 0 16.5376-30.3104h17.3568a11.1104 11.1104 0 0 1 11.1104 11.1104z" p-id="5024" fill="#ffffff"></path><path d="M574.5152 690.0736L512 507.392l-55.296 116.3264-30.3104-82.944-41.3696 62.1056H329.5744v-33.3312h37.632l67.9424-102.0416 25.6 70.0928 56.32-118.4768 60.3648 176.5376 10.8032-26.112h106.1888v33.3312h-83.8656l-36.0448 87.1936z" p-id="5025" fill="#ffffff"></path><path d="M525.824 691.9168H375.296a19.7632 19.7632 0 1 1 0-39.4752h150.528a19.7632 19.7632 0 1 1 0 39.4752zM648.704 753.92H375.296a19.7632 19.7632 0 0 1 0-39.5264h273.408a19.7632 19.7632 0 1 1 0 39.5264z" p-id="5026" fill="#ffffff"></path></svg>