<?xml version="1.0" standalone="no"?><!DOCTYPE svg PUBLIC "-//W3C//DTD SVG 1.1//EN" "http://www.w3.org/Graphics/SVG/1.1/DTD/svg11.dtd"><svg t="1603349454573" class="icon" viewBox="0 0 1024 1024" version="1.1" xmlns="http://www.w3.org/2000/svg" p-id="6480" xmlns:xlink="http://www.w3.org/1999/xlink" width="200" height="200"><defs><style type="text/css"></style></defs><path d="M323.584 207.36c-11.776 0-21.504 9.728-21.504 21.504v72.704H229.376c-11.776 0-21.504 9.728-21.504 21.504 0 11.776 9.728 21.504 21.504 21.504H302.08v72.704c0 11.776 9.728 21.504 21.504 21.504 11.776 0 21.504-9.728 21.504-21.504V345.088h72.704c11.776 0 21.504-9.728 21.504-21.504 0-11.776-9.728-21.504-21.504-21.504H345.088V229.376c0-12.288-9.728-22.016-21.504-22.016z m355.328 0h-159.744c-11.776 0-21.504 9.728-21.504 21.504 0 11.776 9.728 21.504 21.504 21.504h159.744c11.776 0 21.504-9.728 21.504-21.504 0-11.776-9.728-21.504-21.504-21.504z m0 101.376h-159.744c-11.776 0-21.504 9.728-21.504 21.504 0 11.776 9.728 21.504 21.504 21.504h159.744c11.776 0 21.504-9.728 21.504-21.504 0-11.776-9.728-21.504-21.504-21.504z m0 101.888h-159.744c-11.776 0-21.504 9.728-21.504 21.504 0 11.776 9.728 21.504 21.504 21.504h159.744c11.776 0 21.504-9.728 21.504-21.504 0-11.776-9.728-21.504-21.504-21.504zM519.168 599.04H229.376c-11.776 0-21.504 9.728-21.504 21.504 0 11.776 9.728 21.504 21.504 21.504h290.304c11.776 0 21.504-9.728 21.504-21.504 0-11.776-9.728-21.504-22.016-21.504z m0 101.376H229.376c-11.776 0-21.504 9.728-21.504 21.504 0 11.776 9.728 21.504 21.504 21.504h290.304c11.776 0 21.504-9.728 21.504-21.504 0-11.776-9.728-21.504-22.016-21.504z m0 0" p-id="6481" fill="#ffffff"></path><path d="M801.792 163.84v355.328c0 11.776-9.728 21.504-21.504 21.504-11.776 0-21.504-9.728-21.504-21.504V163.84c0-8.192-6.656-14.336-14.336-14.336H163.84c-8.192 0-14.336 6.656-14.336 14.336v696.32c0 8.192 6.656 14.336 14.336 14.336h355.328c11.776 0 21.504 9.728 21.504 21.504 0 11.776-9.728 21.504-21.504 21.504H163.84c-32.256 0-57.856-26.112-57.856-57.856V163.84c0-32.256 26.112-57.856 57.856-57.856h580.096c32.256 0 57.856 26.112 57.856 57.856z m0 0" p-id="6482" fill="#ffffff"></path><path d="M743.936 599.04c79.872 0 144.896 65.024 144.896 144.896 0 79.872-65.024 144.896-144.896 144.896-79.872 0-144.896-65.024-144.896-144.896 0-79.872 65.024-144.896 144.896-144.896z m0-29.184c-96.256 0-174.08 77.824-174.08 174.08s77.824 174.08 174.08 174.08 174.08-77.824 174.08-174.08-77.824-174.08-174.08-174.08z m0 0" p-id="6483" fill="#ffffff"></path><path d="M841.728 677.376c-2.56-2.56-6.656-4.096-10.24-4.096-4.096 0-7.68 1.536-10.24 4.096l-102.4 102.4-51.2-51.2c-3.584-4.096-9.216-5.12-14.336-3.584-5.12 1.536-8.704 5.12-10.24 10.24-1.536 5.12 0 10.752 3.584 14.336l61.44 61.44c1.536 1.536 3.584 2.56 5.632 3.584 3.072 1.024 6.656 1.024 9.728 0 1.536-0.512 3.584-2.048 4.608-3.072l112.64-112.64c2.56-2.56 4.096-6.656 4.096-10.24 0-4.096-1.536-7.68-4.096-10.24l1.024-1.024z m0 0" p-id="6484" fill="#ffffff"></path></svg>