<?xml version="1.0" standalone="no"?><!DOCTYPE svg PUBLIC "-//W3C//DTD SVG 1.1//EN" "http://www.w3.org/Graphics/SVG/1.1/DTD/svg11.dtd"><svg t="1605245520263" class="icon" viewBox="0 0 1024 1024" version="1.1" xmlns="http://www.w3.org/2000/svg" p-id="5342" xmlns:xlink="http://www.w3.org/1999/xlink" width="200" height="200"><defs><style type="text/css"></style></defs><path d="M510.6176 747.9296H291.072a15.36 15.36 0 0 1-15.36-15.36V282.6752a15.36 15.36 0 0 1 15.36-15.36h361.216a15.36 15.36 0 0 1 15.36 15.36v226.1504a22.272 22.272 0 0 0 44.4928 0V282.6752A60.0064 60.0064 0 0 0 652.288 222.72H291.072a60.0576 60.0576 0 0 0-60.0064 59.9552v449.792a60.0576 60.0576 0 0 0 60.0064 59.9552h219.5456a22.272 22.272 0 0 0 0-44.4928z" p-id="5343" fill="#ffffff"></path><path d="M379.5968 303.0016A19.7632 19.7632 0 0 0 359.7824 322.56v39.424h-39.168a19.7632 19.7632 0 0 0 0 39.5264h39.168v39.168a19.8144 19.8144 0 1 0 39.5776 0v-39.168h39.168a19.7632 19.7632 0 0 0 0-39.5264H399.36V322.56a19.7632 19.7632 0 0 0-19.7632-19.5584zM622.6944 303.0016h-117.76a19.8144 19.8144 0 0 0 0 39.5776h117.76a19.8144 19.8144 0 1 0 0-39.5776zM642.5088 440.6784a19.7632 19.7632 0 0 0-19.8144-19.7632h-117.76a19.8144 19.8144 0 0 0 0 39.5776h117.76a19.8144 19.8144 0 0 0 19.8144-19.8144zM622.6944 361.984h-117.76a19.7632 19.7632 0 0 0 0 39.5264h117.76a19.7632 19.7632 0 1 0 0-39.5264zM504.7808 635.2384h-184.32a19.8144 19.8144 0 0 0 0 39.5776h184.32a19.8144 19.8144 0 1 0 0-39.5776zM504.7808 557.4656h-184.32a19.7632 19.7632 0 1 0 0 39.5264h184.32a19.7632 19.7632 0 1 0 0-39.5264z" p-id="5344" fill="#ffffff"></path><path d="M662.3232 540.0576A130.6112 130.6112 0 1 0 792.9344 670.72a130.7136 130.7136 0 0 0-130.6112-130.6624z m0 221.6448A91.0336 91.0336 0 1 1 753.3568 670.72a91.136 91.136 0 0 1-91.0336 90.9824z" p-id="5345" fill="#ffffff"></path><path d="M706.9184 627.6608L645.12 693.8112l-28.8256-25.088a17.3056 17.3056 0 0 0-22.7328 26.0608l36.5056 31.8464a23.1936 23.1936 0 0 0 32.2048-0.512l69.888-74.752a17.3568 17.3568 0 0 0-25.2928-23.7056z" p-id="5346" fill="#ffffff"></path></svg>