<?xml version="1.0" standalone="no"?><!DOCTYPE svg PUBLIC "-//W3C//DTD SVG 1.1//EN" "http://www.w3.org/Graphics/SVG/1.1/DTD/svg11.dtd"><svg t="1603349444165" class="icon" viewBox="0 0 1024 1024" version="1.1" xmlns="http://www.w3.org/2000/svg" p-id="6321" xmlns:xlink="http://www.w3.org/1999/xlink" width="200" height="200"><defs><style type="text/css"></style></defs><path d="M919.04 104.96h-90.624c-0.512 0-1.024-0.512-1.536-0.512h-143.872c-0.512 0-1.024 0.512-1.536 0.512h-90.624c-17.92 0-35.328 7.168-47.616 19.456l-28.16 27.648-28.16-27.648c-12.8-12.8-30.208-19.456-48.128-19.456h-332.8c-15.36 0-27.648 12.288-27.648 27.648v711.168c0 15.36 12.288 27.648 27.648 27.648h325.632c16.896 28.672 47.616 48.64 82.944 48.64 35.84 0 66.56-19.456 82.944-48.64h321.536c15.36 0 27.648-12.288 27.648-27.648v-711.68c-0.512-15.36-12.288-27.136-27.648-27.136z m-211.968 48.128h95.744v127.488l-30.208-31.744c-4.608-4.608-10.752-7.68-17.408-7.68-6.656 0-12.8 2.56-17.408 7.168l-30.72 32.256V153.088z m190.976 669.696s-232.96 0-310.784 0.512c-13.312 0-24.064 9.216-30.208 21.504-7.68 15.872-24.064 27.136-43.008 27.136-19.968 0-37.376-12.288-44.544-29.696-4.608-10.752-13.824-18.432-25.088-18.432-74.752 0-318.464-0.512-318.464-0.512V153.088h311.808c5.12 0 10.24 2.048 14.336 5.632l28.16 27.648c3.072 3.072 6.144 4.608 9.728 6.144v335.872c0 13.312 10.752 24.064 24.064 24.064s24.064-10.752 24.064-24.064V193.024c3.072-2.048 6.656-3.584 9.728-6.144l28.16-27.648c3.584-3.584 8.704-5.632 14.336-5.632h68.608v187.904c0 9.728 6.144 18.944 15.36 22.528 9.216 3.584 19.456 1.536 26.624-5.632l54.784-57.344 54.272 56.832c4.608 5.12 11.264 7.68 17.408 7.68 3.072 0 6.144-0.512 9.216-1.536 9.216-3.584 15.36-12.8 15.36-22.528V153.088h47.104l-1.024 669.696z m0 0" p-id="6322" fill="#ffffff"></path><path d="M393.216 680.448H200.192c-13.312 0-24.064 10.752-24.064 24.064s10.752 24.064 24.064 24.064h193.024c13.312 0 24.064-10.752 24.064-24.064s-10.752-24.064-24.064-24.064z m433.152 0h-193.024c-13.312 0-24.064 10.752-24.064 24.064s10.752 24.064 24.064 24.064h193.024c13.312 0 24.064-10.752 24.064-24.064-0.512-13.312-11.264-24.064-24.064-24.064z m-626.176-47.616H296.96c13.312 0 24.064-10.752 24.064-24.064s-10.752-24.064-24.064-24.064H200.192c-13.312 0-24.064 10.752-24.064 24.064s10.752 24.064 24.064 24.064z m0 0" p-id="6323" fill="#ffffff"></path></svg>