<?xml version="1.0" standalone="no"?><!DOCTYPE svg PUBLIC "-//W3C//DTD SVG 1.1//EN" "http://www.w3.org/Graphics/SVG/1.1/DTD/svg11.dtd"><svg t="1605245513384" class="icon" viewBox="0 0 1024 1024" version="1.1" xmlns="http://www.w3.org/2000/svg" p-id="5183" xmlns:xlink="http://www.w3.org/1999/xlink" width="200" height="200"><defs><style type="text/css"></style></defs><path d="M777.6256 226.816h-204.8a22.272 22.272 0 0 0-5.12 0.6144 21.504 21.504 0 0 0-21.1968 7.0144l-34.6624 40.96-34.6624-40.96-0.6144-0.5632a15.9232 15.9232 0 0 0-1.6384-1.5872 16.9472 16.9472 0 0 0-1.536-1.28 13.5168 13.5168 0 0 0-1.792-1.1776l-1.8432-0.9728c-0.6144-0.3072-1.28-0.512-1.9456-0.768s-1.3312-0.4608-2.048-0.6144l-1.9456-0.3584a17.5104 17.5104 0 0 0-2.304 0H256a50.5856 50.5856 0 0 0-50.5344 50.4832v436.992a50.5856 50.5856 0 0 0 50.5344 50.2272h191.1296a81.152 81.152 0 0 0 129.6896 0H768a50.5856 50.5856 0 0 0 50.5344-50.5344V277.2992c0-25.4464-20.2752-50.4832-40.9088-50.4832z m-2.4064 487.4752a7.2192 7.2192 0 0 1-7.2192 7.2192h-201.1648a21.6576 21.6576 0 0 0-21.0944 11.6736 37.888 37.888 0 0 1-67.4816 0 21.6576 21.6576 0 0 0-21.1456-11.6736H256a7.2192 7.2192 0 0 1-7.2192-7.2192V277.2992A7.2192 7.2192 0 0 1 256 270.08h194.8672l39.4752 46.4896v207.5648a21.6576 21.6576 0 1 0 43.3152 0V316.5696l39.4752-46.4896h199.3216a12.6464 12.6464 0 0 1 2.7648 7.2192z" p-id="5184" fill="#ffffff"></path><path d="M388.0448 592.1792H303.1552a20.48 20.48 0 0 1 0-40.96h84.8896a20.48 20.48 0 0 1 0 40.96zM448.768 663.9616H303.1552a20.48 20.48 0 0 1 0-40.96h145.6128a20.48 20.48 0 0 1 0 40.96zM718.0288 667.1872H572.416a20.48 20.48 0 0 1 0-40.96h145.6128a20.48 20.48 0 1 1 0 40.96z" p-id="5185" fill="#ffffff"></path></svg>