<?xml version="1.0" standalone="no"?><!DOCTYPE svg PUBLIC "-//W3C//DTD SVG 1.1//EN" "http://www.w3.org/Graphics/SVG/1.1/DTD/svg11.dtd"><svg t="1659165753839" class="icon" viewBox="0 0 1024 1024" version="1.1" xmlns="http://www.w3.org/2000/svg" p-id="5005" xmlns:xlink="http://www.w3.org/1999/xlink" width="200" height="200"><defs><style type="text/css">@font-face { font-family: feedback-iconfont; src: url("//at.alicdn.com/t/font_1031158_u69w8yhxdu.woff2?t=1630033759944") format("woff2"), url("//at.alicdn.com/t/font_1031158_u69w8yhxdu.woff?t=1630033759944") format("woff"), url("//at.alicdn.com/t/font_1031158_u69w8yhxdu.ttf?t=1630033759944") format("truetype"); }
</style></defs><path d="M702.464 214.016H321.536c-67.072 0-121.344 53.76-121.344 119.296V588.8c0 65.536 54.272 119.296 121.344 119.296h10.24v130.048l189.952-130.048h181.248c67.072 0 121.344-53.76 121.344-119.296V333.312c-0.512-66.048-54.784-119.296-121.856-119.296z m69.632 374.272c0 37.376-31.232 67.072-69.12 67.072H505.344l-121.856 83.456V655.36H321.536c-38.4 0-69.12-30.208-69.12-67.072V333.312c0-36.864 31.232-67.072 69.12-67.072h381.44c38.4 0 69.12 30.208 69.12 67.072v254.976z" p-id="5006" fill="#FFFFFF"></path><path d="M473.088 460.8c0 21.504 17.408 38.912 38.912 38.912s38.912-17.408 38.912-38.912-17.408-38.912-38.912-38.912-38.912 17.408-38.912 38.912zM316.928 460.8c0 21.504 17.408 38.912 38.912 38.912s38.912-17.408 38.912-38.912-17.408-38.912-38.912-38.912-38.912 17.408-38.912 38.912zM629.248 460.8c0 21.504 17.408 38.912 38.912 38.912 21.504 0 38.912-17.408 38.912-38.912s-17.408-38.912-38.912-38.912c-21.504 0-38.912 17.408-38.912 38.912z" p-id="5007" fill="#FFFFFF"></path></svg>