<?xml version="1.0" standalone="no"?><!DOCTYPE svg PUBLIC "-//W3C//DTD SVG 1.1//EN" "http://www.w3.org/Graphics/SVG/1.1/DTD/svg11.dtd"><svg t="1659165910013" class="icon" viewBox="0 0 1024 1024" version="1.1" xmlns="http://www.w3.org/2000/svg" p-id="6137" xmlns:xlink="http://www.w3.org/1999/xlink" width="200" height="200"><defs><style type="text/css">@font-face { font-family: feedback-iconfont; src: url("//at.alicdn.com/t/font_1031158_u69w8yhxdu.woff2?t=1630033759944") format("woff2"), url("//at.alicdn.com/t/font_1031158_u69w8yhxdu.woff?t=1630033759944") format("woff"), url("//at.alicdn.com/t/font_1031158_u69w8yhxdu.ttf?t=1630033759944") format("truetype"); }
</style></defs><path d="M420.864 476.16H263.68c-21.504 0-39.424-17.408-39.424-39.424V279.552c0-21.504 17.408-39.424 39.424-39.424h157.696c21.504 0 39.424 17.408 39.424 39.424v157.696c-0.512 21.504-18.432 38.912-39.936 38.912z m240.64 19.456c-9.728 0-17.92-3.584-25.088-10.24L535.04 384c-6.656-6.656-10.24-15.36-10.24-25.088s3.584-17.92 10.24-25.088l101.376-101.376c6.656-6.656 15.36-10.24 25.088-10.24 9.728 0 17.92 3.584 25.088 10.24l101.376 101.376c6.656 6.656 16.896 15.36 16.896 25.088 0 9.728-10.24 17.92-16.896 25.088l-101.376 101.376c-7.168 6.656-15.36 10.24-25.088 10.24z m-9.728-238.592l-92.16 92.16c-5.632 5.632-5.632 13.824 0 18.944l92.16 91.648c5.632 5.632 13.824 5.632 18.944 0l92.16-92.16c5.632-5.632 5.632-13.824 0-18.944l-91.648-91.648c-5.12-5.632-13.824-5.632-19.456 0zM420.864 801.792H263.68c-21.504 0-39.424-17.408-39.424-39.424v-157.696c0-21.504 17.408-39.424 39.424-39.424h157.696c21.504 0 39.424 17.408 39.424 39.424v157.696c-0.512 22.528-18.432 39.424-39.936 39.424z m318.976 0h-157.696c-21.504 0-39.424-17.408-39.424-39.424v-157.696c0-21.504 17.408-39.424 39.424-39.424h157.696c21.504 0 39.424 17.408 39.424 39.424v157.696c0 22.528-17.408 39.424-39.424 39.424z" p-id="6138" fill="#FFFFFF"></path></svg>