<?xml version="1.0" standalone="no"?><!DOCTYPE svg PUBLIC "-//W3C//DTD SVG 1.1//EN" "http://www.w3.org/Graphics/SVG/1.1/DTD/svg11.dtd"><svg t="1617325249952" class="icon" viewBox="0 0 1024 1024" version="1.1" xmlns="http://www.w3.org/2000/svg" p-id="1286" xmlns:xlink="http://www.w3.org/1999/xlink" width="300" height="300"><defs><style type="text/css">@font-face { font-family: element-icons; src: url("chrome-extension://moombeodfomdpjnpocobemoiaemednkg/fonts/element-icons.woff") format("woff"), url("chrome-extension://moombeodfomdpjnpocobemoiaemednkg/fonts/element-icons.ttf ") format("truetype"); }
</style></defs><path d="M234.496 563.2c6.144 0 12.8-2.048 17.408-6.656 4.608-4.608 7.68-10.752 7.68-17.408 0-112.128 74.24-210.944 181.76-241.664 13.312 26.624 40.448 43.008 69.632 43.008 41.472 0 75.264-31.744 77.824-73.216 3.072-40.96-27.136-77.312-68.096-82.432s-78.848 22.528-86.528 62.976C302.08 282.112 209.92 401.92 210.432 538.624c0 6.144 2.048 12.8 6.656 17.408 4.096 5.12 10.24 7.168 17.408 7.168zM481.28 265.728V261.12c0-3.072 0.512-6.144 1.536-9.216l1.024-3.072 1.024-3.072c7.68-12.288 22.528-16.896 35.84-11.264 13.312 5.12 20.48 18.944 17.92 32.768-2.048 13.824-14.336 23.552-28.672 24.064s-26.624-10.24-28.672-25.6z m155.136 506.368c-8.192-5.12-17.408-5.632-25.088-2.048-31.232 13.824-65.024 20.48-98.816 20.48h-1.536c-58.368 0-115.2-19.968-160.256-57.344 19.456-32.768 12.288-74.752-17.408-99.84-29.184-24.576-72.192-24.064-100.864 1.024-28.672 24.576-35.328 67.584-14.848 99.84 19.968 32.256 60.416 45.568 96.256 31.232C368.64 813.056 438.784 839.68 512 839.68c41.472 0 82.432-8.192 119.808-24.576 8.192-3.584 14.336-10.752 14.848-19.456 0.512-9.216-3.584-18.432-10.24-23.552z m-334.336-56.32c-10.24 8.704-25.088 9.216-36.352 0.512-10.752-8.192-14.336-23.04-8.704-35.328 5.632-12.288 19.456-18.944 32.768-15.872s22.528 14.848 22.528 28.16c0 8.704-4.096 16.896-10.24 22.528z" p-id="1287" fill="#ffffff"></path><path d="M510.464 452.096l-1.024 0.512-0.512-0.512c-16.896-17.408-39.936-27.136-64-27.136-37.376 0-70.144 22.016-83.968 55.808-13.824 34.304-6.144 73.216 19.456 98.304l5.632 6.144 101.376 101.888 14.848 14.336 3.072 3.072h6.656l124.416-124.928c26.112-26.112 33.792-65.024 19.456-98.304-14.336-33.792-47.104-55.808-83.968-55.808-22.016 0-45.056 9.728-61.44 26.624z m-110.592 45.056c7.68-18.432 25.088-29.696 44.544-29.696 12.8 0 24.576 5.12 35.328 14.336l29.184 29.184 29.696-29.696c9.216-9.216 22.016-14.848 33.792-14.848 12.8 0 24.576 5.12 33.792 14.848 9.216 9.216 14.336 21.504 14.336 33.792 0 13.312-4.608 24.576-14.336 33.792l-98.304 98.304-73.728-74.24-24.064-24.064c-13.824-13.312-17.92-33.792-10.24-51.712z" p-id="1288" fill="#ffffff"></path><path d="M795.136 637.952c44.544-129.024-3.072-271.872-115.712-347.648-8.192-5.632-18.944-5.632-27.136-0.512-8.192 5.12-12.8 14.848-10.752 24.576 1.024 6.144 5.12 12.288 10.24 15.36 92.672 62.976 133.12 179.712 98.816 286.208-28.672-4.096-57.344 8.704-74.24 32.256-16.896 23.552-18.944 54.784-5.632 80.384s39.936 41.984 69.12 41.984c31.744 0 60.416-18.944 72.704-48.128 12.288-27.648 5.12-61.952-17.408-84.48z m-43.008 82.432c-10.752 4.608-23.552 1.536-31.744-6.144-8.192-8.192-10.752-20.48-6.144-31.744 4.608-10.752 14.848-17.92 27.136-17.92 15.36 0 28.672 13.312 28.672 28.672 0 11.776-7.168 22.528-17.92 27.136z" p-id="1289" fill="#ffffff"></path></svg>